# xmcd
#
# Track frame offsets: 
#        150
#        12145
#        19027
#        27908
#        37273
#        49641
#        62341
#        72891
#        84573
#        96732
#        104654
#        117310
#        127740
#        140418
#
# Disc length: 1954 seconds
#
# Revision: 0
# Processed by: cddbd v1.5.2PL0 Copyright (c) Steve Scherf et al.
# Submitted via: ExactAudioCopyFreeDBPlugin 1.0
#
DISCID=bb07a00e
DTITLE=Oak Ridge Boys, The - Gospel
DYEAR=1900
DGENRE=Gospel
TTITLE0=At the Roll Call
TTITLE1=Each Step I Take
TTITLE2=He Means the World to Me
TTITLE3=I Know My Savior is There
TTITLE4=I Want to See Jesus Most of All
TTITLE5=In the Shelter of His Arms
TTITLE6=My Heavenly Father Watches Over Me
TTITLE7=No One Cared So Much
TTITLE8=On the Sunny Banks
TTITLE9=Someday
TTITLE10=Thank God, I'm Reborn
TTITLE11=Wonderful Savior
TTITLE12=You'll Never Walk Alone
TTITLE13=The Christian Way
EXTD=
EXTT0=
EXTT1=
EXTT2=
EXTT3=
EXTT4=
EXTT5=
EXTT6=
EXTT7=
EXTT8=
EXTT9=
EXTT10=
EXTT11=
EXTT12=
EXTT13=
PLAYORDER=
